{"accessors" : [{"bufferView" : 0, "byteOffset" : 0, "componentType" : 5123, "count" : 204, "type" : "SCALAR", "max" : [203], "min" : [0]}, {"bufferView" : 1, "byteOffset" : 0, "componentType" : 5126, "count" : 204, "type" : "VEC3", "max" : [0.21495504677295685, 0.16300061345100403, 0.49114707112312317], "min" : [-0.07159028202295303, -1.5329433679580688, -0.7609866261482239], "name" : "POSITION"}, {"bufferView" : 1, "byteOffset" : 12, "componentType" : 5126, "count" : 204, "type" : "VEC3", "max" : [1.0000044107437134, 0.3885056972503662, 0.9829314947128296], "min" : [-1.0000044107437134, -0.3885056972503662, -0.9829316139221191], "name" : "NORMAL"}, {"bufferView" : 1, "byteOffset" : 24, "componentType" : 5126, "count" : 204, "type" : "VEC4", "max" : [0.38774579763412476, 0.9910864233970642, 0.9851121306419373, 1], "min" : [-0.10412243753671646, -0.732961893081665, -1.0000044107437134, 1], "name" : "TANGENT"}, {"bufferView" : 1, "byteOffset" : 40, "componentType" : 5126, "count" : 204, "type" : "VEC2", "max" : [0.875, 1], "min" : [0.125, 0], "name" : "TEXCOORD_0"}, {"bufferView" : 0, "byteOffset" : 408, "componentType" : 5123, "count" : 204, "type" : "SCALAR", "max" : [203], "min" : [0]}, {"bufferView" : 2, "byteOffset" : 0, "componentType" : 5126, "count" : 204, "type" : "VEC3", "max" : [0.1976669728755951, 0.16300061345100403, 1.058363676071167], "min" : [-0.088878333568573, -1.5329433679580688, -0.19376999139785767], "name" : "POSITION"}, {"bufferView" : 2, "byteOffset" : 12, "componentType" : 5126, "count" : 204, "type" : "VEC3", "max" : [1.0000044107437134, 0.3885056972503662, 0.9829314947128296], "min" : [-1.0000044107437134, -0.3885056972503662, -0.9829316139221191], "name" : "NORMAL"}, {"bufferView" : 2, "byteOffset" : 24, "componentType" : 5126, "count" : 204, "type" : "VEC4", "max" : [0.38774579763412476, 0.9910864233970642, 0.9851121306419373, 1], "min" : [-0.10412243008613586, -0.7329619526863098, -1.0000044107437134, 1], "name" : "TANGENT"}, {"bufferView" : 2, "byteOffset" : 40, "componentType" : 5126, "count" : 204, "type" : "VEC2", "max" : [0.875, 1], "min" : [0.125, 0], "name" : "TEXCOORD_0"}, {"bufferView" : 0, "byteOffset" : 816, "componentType" : 5123, "count" : 204, "type" : "SCALAR", "max" : [203], "min" : [0]}, {"bufferView" : 3, "byteOffset" : 0, "componentType" : 5126, "count" : 204, "type" : "VEC3", "max" : [0.1442660689353943, 0.16300061345100403, 0.1054021418094635], "min" : [-0.1422792375087738, -1.5329433679580688, -1.1467316150665283], "name" : "POSITION"}, {"bufferView" : 3, "byteOffset" : 12, "componentType" : 5126, "count" : 204, "type" : "VEC3", "max" : [1.0000044107437134, 0.3885056972503662, 0.9829314947128296], "min" : [-1.0000044107437134, -0.3885056972503662, -0.9829316139221191], "name" : "NORMAL"}, {"bufferView" : 3, "byteOffset" : 24, "componentType" : 5126, "count" : 204, "type" : "VEC4", "max" : [0.38774579763412476, 0.9910864233970642, 0.9851121306419373, 1], "min" : [-0.10412243753671646, -0.7329619526863098, -1.0000044107437134, 1], "name" : "TANGENT"}, {"bufferView" : 3, "byteOffset" : 40, "componentType" : 5126, "count" : 204, "type" : "VEC2", "max" : [0.875, 1], "min" : [0.125, 0], "name" : "TEXCOORD_0"}, {"bufferView" : 0, "byteOffset" : 1224, "componentType" : 5123, "count" : 204, "type" : "SCALAR", "max" : [203], "min" : [0]}, {"bufferView" : 4, "byteOffset" : 0, "componentType" : 5126, "count" : 204, "type" : "VEC3", "max" : [0.20338371396064758, 0.16300061345100403, 0.2467881441116333], "min" : [-0.0831616073846817, -1.5329433679580688, -1.0053455829620361], "name" : "POSITION"}, {"bufferView" : 4, "byteOffset" : 12, "componentType" : 5126, "count" : 204, "type" : "VEC3", "max" : [1.0000044107437134, 0.3885056972503662, 0.9829314947128296], "min" : [-1.0000044107437134, -0.3885056972503662, -0.9829316139221191], "name" : "NORMAL"}, {"bufferView" : 4, "byteOffset" : 24, "componentType" : 5126, "count" : 204, "type" : "VEC4", "max" : [0.38774579763412476, 0.9910864233970642, 0.9851121306419373, 1], "min" : [-0.10412243753671646, -0.732961893081665, -1.0000044107437134, 1], "name" : "TANGENT"}, {"bufferView" : 4, "byteOffset" : 40, "componentType" : 5126, "count" : 204, "type" : "VEC2", "max" : [0.875, 1], "min" : [0.125, 0], "name" : "TEXCOORD_0"}, {"bufferView" : 0, "byteOffset" : 1632, "componentType" : 5123, "count" : 204, "type" : "SCALAR", "max" : [203], "min" : [0]}, {"bufferView" : 5, "byteOffset" : 0, "componentType" : 5126, "count" : 204, "type" : "VEC3", "max" : [0.21495504677295685, 0.16300061345100403, 0.49114707112312317], "min" : [-0.07159028202295303, -1.5329433679580688, -0.7609866261482239], "name" : "POSITION"}, {"bufferView" : 5, "byteOffset" : 12, "componentType" : 5126, "count" : 204, "type" : "VEC3", "max" : [1.0000044107437134, 0.3885056972503662, 0.9829314947128296], "min" : [-1.0000044107437134, -0.3885056972503662, -0.9829316139221191], "name" : "NORMAL"}, {"bufferView" : 5, "byteOffset" : 24, "componentType" : 5126, "count" : 204, "type" : "VEC4", "max" : [0.38774579763412476, 0.9910864233970642, 0.9851121306419373, 1], "min" : [-0.10412243753671646, -0.732961893081665, -1.0000044107437134, 1], "name" : "TANGENT"}, {"bufferView" : 5, "byteOffset" : 40, "componentType" : 5126, "count" : 204, "type" : "VEC2", "max" : [0.875, 1], "min" : [0.125, 0], "name" : "TEXCOORD_0"}, {"bufferView" : 0, "byteOffset" : 2040, "componentType" : 5123, "count" : 204, "type" : "SCALAR", "max" : [203], "min" : [0]}, {"bufferView" : 6, "byteOffset" : 0, "componentType" : 5126, "count" : 204, "type" : "VEC3", "max" : [0.1976669728755951, 0.16300061345100403, 1.058363676071167], "min" : [-0.088878333568573, -1.5329433679580688, -0.19376999139785767], "name" : "POSITION"}, {"bufferView" : 6, "byteOffset" : 12, "componentType" : 5126, "count" : 204, "type" : "VEC3", "max" : [1.0000044107437134, 0.3885056972503662, 0.9829314947128296], "min" : [-1.0000044107437134, -0.3885056972503662, -0.9829316139221191], "name" : "NORMAL"}, {"bufferView" : 6, "byteOffset" : 24, "componentType" : 5126, "count" : 204, "type" : "VEC4", "max" : [0.38774579763412476, 0.9910864233970642, 0.9851121306419373, 1], "min" : [-0.10412243008613586, -0.7329619526863098, -1.0000044107437134, 1], "name" : "TANGENT"}, {"bufferView" : 6, "byteOffset" : 40, "componentType" : 5126, "count" : 204, "type" : "VEC2", "max" : [0.875, 1], "min" : [0.125, 0], "name" : "TEXCOORD_0"}, {"bufferView" : 0, "byteOffset" : 2448, "componentType" : 5123, "count" : 204, "type" : "SCALAR", "max" : [203], "min" : [0]}, {"bufferView" : 7, "byteOffset" : 0, "componentType" : 5126, "count" : 204, "type" : "VEC3", "max" : [0.1442660689353943, 0.16300061345100403, 0.1054021418094635], "min" : [-0.1422792375087738, -1.5329433679580688, -1.1467316150665283], "name" : "POSITION"}, {"bufferView" : 7, "byteOffset" : 12, "componentType" : 5126, "count" : 204, "type" : "VEC3", "max" : [1.0000044107437134, 0.3885056972503662, 0.9829314947128296], "min" : [-1.0000044107437134, -0.3885056972503662, -0.9829316139221191], "name" : "NORMAL"}, {"bufferView" : 7, "byteOffset" : 24, "componentType" : 5126, "count" : 204, "type" : "VEC4", "max" : [0.38774579763412476, 0.9910864233970642, 0.9851121306419373, 1], "min" : [-0.10412243753671646, -0.7329619526863098, -1.0000044107437134, 1], "name" : "TANGENT"}, {"bufferView" : 7, "byteOffset" : 40, "componentType" : 5126, "count" : 204, "type" : "VEC2", "max" : [0.875, 1], "min" : [0.125, 0], "name" : "TEXCOORD_0"}, {"bufferView" : 0, "byteOffset" : 2856, "componentType" : 5123, "count" : 204, "type" : "SCALAR", "max" : [203], "min" : [0]}, {"bufferView" : 8, "byteOffset" : 0, "componentType" : 5126, "count" : 204, "type" : "VEC3", "max" : [0.20338371396064758, 0.16300061345100403, 0.2467881441116333], "min" : [-0.0831616073846817, -1.5329433679580688, -1.0053455829620361], "name" : "POSITION"}, {"bufferView" : 8, "byteOffset" : 12, "componentType" : 5126, "count" : 204, "type" : "VEC3", "max" : [1.0000044107437134, 0.3885056972503662, 0.9829314947128296], "min" : [-1.0000044107437134, -0.3885056972503662, -0.9829316139221191], "name" : "NORMAL"}, {"bufferView" : 8, "byteOffset" : 24, "componentType" : 5126, "count" : 204, "type" : "VEC4", "max" : [0.38774579763412476, 0.9910864233970642, 0.9851121306419373, 1], "min" : [-0.10412243753671646, -0.732961893081665, -1.0000044107437134, 1], "name" : "TANGENT"}, {"bufferView" : 8, "byteOffset" : 40, "componentType" : 5126, "count" : 204, "type" : "VEC2", "max" : [0.875, 1], "min" : [0.125, 0], "name" : "TEXCOORD_0"}, {"bufferView" : 0, "byteOffset" : 3264, "componentType" : 5123, "count" : 360, "type" : "SCALAR", "max" : [359], "min" : [0]}, {"bufferView" : 9, "byteOffset" : 0, "componentType" : 5126, "count" : 360, "type" : "VEC3", "max" : [1.1140130758285522, 0.2084970474243164, 0.8692329525947571], "min" : [-1.0276318788528442, -4.643133640289307, -1.3826261758804321], "name" : "POSITION"}, {"bufferView" : 9, "byteOffset" : 12, "componentType" : 5126, "count" : 360, "type" : "VEC3", "max" : [1.0000044107437134, 1.0000044107437134, 0.9510624408721924], "min" : [-1.0000044107437134, -1.0000044107437134, -0.9511085152626038], "name" : "NORMAL"}, {"bufferView" : 9, "byteOffset" : 24, "componentType" : 5126, "count" : 360, "type" : "VEC4", "max" : [0.9510611891746521, 1.0000044107437134, 1.0000044107437134, 1], "min" : [-0.9822370409965515, -0.32491469383239746, -0.8090274333953857, 1], "name" : "TANGENT"}, {"bufferView" : 9, "byteOffset" : 40, "componentType" : 5126, "count" : 360, "type" : "VEC2", "max" : [1, 1], "min" : [0, 0], "name" : "TEXCOORD_0"}, {"bufferView" : 0, "byteOffset" : 3984, "componentType" : 5123, "count" : 1800, "type" : "SCALAR", "max" : [1799], "min" : [0]}, {"bufferView" : 10, "byteOffset" : 0, "componentType" : 5126, "count" : 1800, "type" : "VEC3", "max" : [2.204237222671509, 5.20543098449707, 2.0673532485961914], "min" : [-2.1541857719421387, -2.500100612640381, -2.7404732704162598], "name" : "POSITION"}, {"bufferView" : 10, "byteOffset" : 12, "componentType" : 5126, "count" : 1800, "type" : "VEC3", "max" : [0.9966617822647095, 1.0000044107437134, 0.9999829530715942], "min" : [-0.9947773814201355, -1.0000044107437134, -0.9999829530715942], "name" : "NORMAL"}, {"bufferView" : 10, "byteOffset" : 24, "componentType" : 5126, "count" : 1800, "type" : "VEC4", "max" : [0.9999972581863403, 0.9994783997535706, 1.0000044107437134, 1], "min" : [-0.9999972581863403, -0.2643853425979614, -0.8920168876647949, 1], "name" : "TANGENT"}, {"bufferView" : 10, "byteOffset" : 40, "componentType" : 5126, "count" : 1800, "type" : "VEC2", "max" : [1, 1.000000238418579], "min" : [0, 0], "name" : "TEXCOORD_0"}, {"bufferView" : 0, "byteOffset" : 7584, "componentType" : 5123, "count" : 360, "type" : "SCALAR", "max" : [359], "min" : [0]}, {"bufferView" : 11, "byteOffset" : 0, "componentType" : 5126, "count" : 360, "type" : "VEC3", "max" : [1.5813612937927246, -0.15921783447265625, 0.7637624144554138], "min" : [-0.40662869811058044, -5.795848846435547, -1.4880969524383545], "name" : "POSITION"}, {"bufferView" : 11, "byteOffset" : 12, "componentType" : 5126, "count" : 360, "type" : "VEC3", "max" : [0.9989326596260071, 0.9282581210136414, 0.9509644508361816], "min" : [-0.9989327788352966, -1.0000044107437134, -0.9510030150413513], "name" : "NORMAL"}, {"bufferView" : 11, "byteOffset" : 24, "componentType" : 5126, "count" : 360, "type" : "VEC4", "max" : [0.9510582685470581, 0.9999041557312012, 1.0000044107437134, 1], "min" : [-0.9751609563827515, -0.6484742760658264, -0.8105741739273071, 1], "name" : "TANGENT"}, {"bufferView" : 11, "byteOffset" : 40, "componentType" : 5126, "count" : 360, "type" : "VEC2", "max" : [1, 1], "min" : [0, 0], "name" : "TEXCOORD_0"}, {"bufferView" : 0, "byteOffset" : 8304, "componentType" : 5123, "count" : 1800, "type" : "SCALAR", "max" : [1799], "min" : [0]}, {"bufferView" : 12, "byteOffset" : 0, "componentType" : 5126, "count" : 1800, "type" : "VEC3", "max" : [1.589266061782837, 2.8884551525115967, 1.2429903745651245], "min" : [-1.589240550994873, -2.500100612640381, -2.190483331680298], "name" : "POSITION"}, {"bufferView" : 12, "byteOffset" : 12, "componentType" : 5126, "count" : 1800, "type" : "VEC3", "max" : [0.9739933013916016, 1.0000044107437134, 1.0000044107437134], "min" : [-0.9739922881126404, -1.0000044107437134, -1.0000044107437134], "name" : "NORMAL"}, {"bufferView" : 12, "byteOffset" : 24, "componentType" : 5126, "count" : 1800, "type" : "VEC4", "max" : [1.0000044107437134, 1.0000044107437134, 1.0000044107437134, 1], "min" : [-1.0000044107437134, -0.26781466603279114, -0.9010143280029297, 1], "name" : "TANGENT"}, {"bufferView" : 12, "byteOffset" : 40, "componentType" : 5126, "count" : 1800, "type" : "VEC2", "max" : [1, 1.000000238418579], "min" : [0, 0], "name" : "TEXCOORD_0"}], "asset" : {"generator" : "Aspose.3D 25.3.0", "version" : "2.0"}, "buffers" : [{"uri" : "data:application/octet-stream;base64,", "byteLength" : 297652}], "bufferViews" : [{"buffer" : 0, "byteOffset" : 0, "byteLength" : 11904, "target" : 34963}, {"buffer" : 0, "byteOffset" : 11908, "byteLength" : 9792, "byteStride" : 48, "target" : 34962}, {"buffer" : 0, "byteOffset" : 21704, "byteLength" : 9792, "byteStride" : 48, "target" : 34962}, {"buffer" : 0, "byteOffset" : 31500, "byteLength" : 9792, "byteStride" : 48, "target" : 34962}, {"buffer" : 0, "byteOffset" : 41296, "byteLength" : 9792, "byteStride" : 48, "target" : 34962}, {"buffer" : 0, "byteOffset" : 51092, "byteLength" : 9792, "byteStride" : 48, "target" : 34962}, {"buffer" : 0, "byteOffset" : 60888, "byteLength" : 9792, "byteStride" : 48, "target" : 34962}, {"buffer" : 0, "byteOffset" : 70684, "byteLength" : 9792, "byteStride" : 48, "target" : 34962}, {"buffer" : 0, "byteOffset" : 80480, "byteLength" : 9792, "byteStride" : 48, "target" : 34962}, {"buffer" : 0, "byteOffset" : 90276, "byteLength" : 17280, "byteStride" : 48, "target" : 34962}, {"buffer" : 0, "byteOffset" : 107560, "byteLength" : 86400, "byteStride" : 48, "target" : 34962}, {"buffer" : 0, "byteOffset" : 193964, "byteLength" : 17280, "byteStride" : 48, "target" : 34962}, {"buffer" : 0, "byteOffset" : 211248, "byteLength" : 86400, "byteStride" : 48, "target" : 34962}], "materials" : [{"name" : "blinn2", "pbrMetallicRoughness" : {"baseColorFactor" : [0.7746444344520569, 0.7843137383460999, 0.5536331534385681, 1], "metallicFactor" : 1, "roughnessFactor" : 1}, "emissiveFactor" : [0, 0, 0], "alphaMode" : "OPAQUE", "doubleSided" : false}, {"name" : "blinn18", "pbrMetallicRoughness" : {"baseColorFactor" : [0.6191640496253967, 0.8820000290870667, 0.8820000290870667, 1], "metallicFactor" : 1, "roughnessFactor" : 1}, "emissiveFactor" : [0, 0, 0], "alphaMode" : "OPAQUE", "doubleSided" : false}], "meshes" : [{"primitives" : [{"attributes" : {"POSITION" : 1, "NORMAL" : 2, "TANGENT" : 3, "TEXCOORD_0" : 4}, "indices" : 0, "material" : 0, "mode" : 4}], "name" : "Scene"}, {"primitives" : [{"attributes" : {"POSITION" : 6, "NORMAL" : 7, "TANGENT" : 8, "TEXCOORD_0" : 9}, "indices" : 5, "material" : 0, "mode" : 4}], "name" : "Scene"}, {"primitives" : [{"attributes" : {"POSITION" : 11, "NORMAL" : 12, "TANGENT" : 13, "TEXCOORD_0" : 14}, "indices" : 10, "material" : 0, "mode" : 4}], "name" : "Scene"}, {"primitives" : [{"attributes" : {"POSITION" : 16, "NORMAL" : 17, "TANGENT" : 18, "TEXCOORD_0" : 19}, "indices" : 15, "material" : 0, "mode" : 4}], "name" : "Scene"}, {"primitives" : [{"attributes" : {"POSITION" : 21, "NORMAL" : 22, "TANGENT" : 23, "TEXCOORD_0" : 24}, "indices" : 20, "material" : 0, "mode" : 4}], "name" : "Scene"}, {"primitives" : [{"attributes" : {"POSITION" : 26, "NORMAL" : 27, "TANGENT" : 28, "TEXCOORD_0" : 29}, "indices" : 25, "material" : 0, "mode" : 4}], "name" : "Scene"}, {"primitives" : [{"attributes" : {"POSITION" : 31, "NORMAL" : 32, "TANGENT" : 33, "TEXCOORD_0" : 34}, "indices" : 30, "material" : 0, "mode" : 4}], "name" : "Scene"}, {"primitives" : [{"attributes" : {"POSITION" : 36, "NORMAL" : 37, "TANGENT" : 38, "TEXCOORD_0" : 39}, "indices" : 35, "material" : 0, "mode" : 4}], "name" : "Scene"}, {"primitives" : [{"attributes" : {"POSITION" : 41, "NORMAL" : 42, "TANGENT" : 43, "TEXCOORD_0" : 44}, "indices" : 40, "material" : 0, "mode" : 4}], "name" : "Scene"}, {"primitives" : [{"attributes" : {"POSITION" : 46, "NORMAL" : 47, "TANGENT" : 48, "TEXCOORD_0" : 49}, "indices" : 45, "material" : 1, "mode" : 4}], "name" : "Scene"}, {"primitives" : [{"attributes" : {"POSITION" : 51, "NORMAL" : 52, "TANGENT" : 53, "TEXCOORD_0" : 54}, "indices" : 50, "material" : 0, "mode" : 4}], "name" : "Scene"}, {"primitives" : [{"attributes" : {"POSITION" : 56, "NORMAL" : 57, "TANGENT" : 58, "TEXCOORD_0" : 59}, "indices" : 55, "material" : 1, "mode" : 4}], "name" : "Scene"}], "nodes" : [{"matrix" : [1.135049862004427, 0, -4.4379081081618, 0, 0, 0.47673261165618896, 0, 0, 0.4567337187385774, 0, 0.11681529490742902, 0, -1.0938453488051891, -3.2642580568790436, -0.31744588632136583, 1], "mesh" : 0, "name" : "pCube14"}, {"matrix" : [-3.4105682473192336, 3.211250851648722E-16, -2.8365458157611956, 0, 5.650366798298255E-17, 0.46166548132896423, -1.567302337348396E-17, 0, 0.29192721869992333, -4.7645420024671884E-17, -0.351003568175751, 0, -1.7265625298023224, -2.580234222114086, -0.1418163999915123, 1], "mesh" : 1, "name" : "pCube15"}, {"matrix" : [4.380238394430369, 0, 1.3404768456346323, 0, 0, 0.47673261165618896, 0, 0, -0.1379571094461567, 0, 0.45079855690800597, 0, -0.7187499664723873, -1.9388951361179352, 0.4980530124157667, 1], "mesh" : 2, "name" : "pCube16"}, {"matrix" : [2.9922856335875245, 0, -3.274781614330983, 0, 0, 0.46166548132896423, 0, 0, 0.3370288902824381, 0, 0.3079554074942835, 0, -0.771205872297287, -1.2548712082207203, -0.1418163999915123, 1], "mesh" : 3, "name" : "pCube17"}, {"matrix" : [1.135049862004427, 0, -4.4379081081618, 0, 0, 0.47673261165618896, 0, 0, 0.4567337187385774, 0, 0.11681529490742902, 0, 0.9222030639648438, -2.2514859214425087, -1.197765301913023, 1], "mesh" : 4, "name" : "pCube22"}, {"matrix" : [-3.4105682473192336, 3.211250851648722E-16, -2.8365458157611956, 0, 5.650366798298255E-17, 0.46166548132896423, -1.567302337348396E-17, 0, 0.29192721869992333, -4.7645420024671884E-17, -0.351003568175751, 0, 0.46767042949795723, -1.6227571293711662, -1.0221358388662338, 1], "mesh" : 5, "name" : "pCube23"}, {"matrix" : [4.380238394430369, 0, 1.3404768456346323, 0, 0, 0.47673261165618896, 0, 0, -0.1379571094461567, 0, 0.45079855690800597, 0, 1.4754828996956348, -3.331589326262474, -0.3822664264589548, 1], "mesh" : 6, "name" : "pCube24"}, {"matrix" : [2.9922856335875245, 0, -3.274781614330983, 0, 0, 0.46166548132896423, 0, 0, 0.3370288902824381, 0, 0.3079554074942835, 0, 1.2259483337402344, -2.717199921607971, -1.0221358388662338, 1], "mesh" : 7, "name" : "pCube25"}, {"matrix" : [1, 0, 0, 0, 0, 1, 0, 0, 0, 0, 1, 0, -1.3053016737103462, -0.03701007226482034, 0.24792172480374575, 1], "mesh" : 8, "name" : "pPipe22"}, {"matrix" : [0.750870943069458, 0, 0, 0, 0, 1.069231390953064, 0, 0, 0, 0, 0.750870943069458, 0, -1.2933997437357903, 2.6427289471030235, 0.2870252588763833, 1], "mesh" : 9, "name" : "pPipe23"}, {"matrix" : [0.7087793946266174, 0, 0, 0, 0, 0.7087793946266174, 0, 0, 0, 0, 0.7087793946266174, 0, 0.8889274671673775, -0.5334700457751751, -0.6323977373540401, 1], "mesh" : 10, "name" : "pPipe26"}, {"matrix" : [0.5102735792301162, -0.18225327993003257, 0, 0, 0.2296741040286396, 0.6430426226850678, 0, 0, 0, 0, 0.5418444275856018, 0, 1.876094751060009, 0.6143351085484028, -0.5932941101491451, 1], "mesh" : 11, "name" : "pPipe27"}, {"children" : [0, 1, 2, 3, 4, 5, 6, 7, 8, 9, 10, 11], "name" : "Modelo"}, {"children" : [12], "matrix" : [0.07000000029802322, 0, 0, 0, 0, 0.07000000029802322, 0, 0, 0, 0, 0.07000000029802322, 0, 0, 0, 0, 1], "name" : "Flor06"}], "scene" : 0, "scenes" : [{"nodes" : [13]}]}