{"accessors" : [{"bufferView" : 0, "byteOffset" : 0, "componentType" : 5123, "count" : 204, "type" : "SCALAR", "max" : [203], "min" : [0]}, {"bufferView" : 1, "byteOffset" : 0, "componentType" : 5126, "count" : 204, "type" : "VEC3", "max" : [0.16066458821296692, 0.16300061345100403, 0.6260668635368347], "min" : [-0.12588071823120117, -1.5329433679580688, -0.6260668635368347], "name" : "POSITION"}, {"bufferView" : 1, "byteOffset" : 12, "componentType" : 5126, "count" : 204, "type" : "VEC3", "max" : [1.0000044107437134, 0.3885056972503662, 0.9829314947128296], "min" : [-1.0000044107437134, -0.3885056972503662, -0.9829316139221191], "name" : "NORMAL"}, {"bufferView" : 1, "byteOffset" : 24, "componentType" : 5126, "count" : 204, "type" : "VEC4", "max" : [0.38774579763412476, 0.9910864233970642, 0.9851121306419373, 1], "min" : [-0.10412243753671646, -0.732961893081665, -1.0000044107437134, 1], "name" : "TANGENT"}, {"bufferView" : 1, "byteOffset" : 40, "componentType" : 5126, "count" : 204, "type" : "VEC2", "max" : [0.875, 1], "min" : [0.125, 0], "name" : "TEXCOORD_0"}, {"bufferView" : 0, "byteOffset" : 408, "componentType" : 5123, "count" : 204, "type" : "SCALAR", "max" : [203], "min" : [0]}, {"bufferView" : 2, "byteOffset" : 0, "componentType" : 5126, "count" : 204, "type" : "VEC3", "max" : [0.16066458821296692, 0.16300061345100403, 0.6260668635368347], "min" : [-0.12588071823120117, -1.5329433679580688, -0.6260668635368347], "name" : "POSITION"}, {"bufferView" : 2, "byteOffset" : 12, "componentType" : 5126, "count" : 204, "type" : "VEC3", "max" : [1.0000044107437134, 0.3885056972503662, 0.9829314947128296], "min" : [-1.0000044107437134, -0.3885056972503662, -0.9829316139221191], "name" : "NORMAL"}, {"bufferView" : 2, "byteOffset" : 24, "componentType" : 5126, "count" : 204, "type" : "VEC4", "max" : [0.38774579763412476, 0.9910864233970642, 0.9851121306419373, 1], "min" : [-0.10412243753671646, -0.732961893081665, -1.0000044107437134, 1], "name" : "TANGENT"}, {"bufferView" : 2, "byteOffset" : 40, "componentType" : 5126, "count" : 204, "type" : "VEC2", "max" : [0.875, 1], "min" : [0.125, 0], "name" : "TEXCOORD_0"}, {"bufferView" : 0, "byteOffset" : 816, "componentType" : 5123, "count" : 240, "type" : "SCALAR", "max" : [239], "min" : [0]}, {"bufferView" : 3, "byteOffset" : 0, "componentType" : 5126, "count" : 240, "type" : "VEC3", "max" : [1.2938755750656128, 0.5767546892166138, 1.2938756942749023], "min" : [-1.2938756942749023, -0.5767546892166138, -1.2938761711120605], "name" : "POSITION"}, {"bufferView" : 3, "byteOffset" : 12, "componentType" : 5126, "count" : 240, "type" : "VEC3", "max" : [0.8279943466186523, 1.0000044107437134, 0.8279942274093628], "min" : [-0.8279942274093628, -1.0000044107437134, -0.8279942274093628], "name" : "NORMAL"}, {"bufferView" : 3, "byteOffset" : 24, "componentType" : 5126, "count" : 240, "type" : "VEC4", "max" : [1.0000044107437134, 0.07324854284524918, 1.0000044107437134, 1], "min" : [-1.0000044107437134, -0.07324851304292679, -1.0000044107437134, 1], "name" : "TANGENT"}, {"bufferView" : 3, "byteOffset" : 40, "componentType" : 5126, "count" : 240, "type" : "VEC2", "max" : [0.65625, 1.0000001192092896], "min" : [0.3437499701976776, 0], "name" : "TEXCOORD_0"}, {"bufferView" : 0, "byteOffset" : 1296, "componentType" : 5123, "count" : 660, "type" : "SCALAR", "max" : [659], "min" : [0]}, {"bufferView" : 4, "byteOffset" : 0, "componentType" : 5126, "count" : 660, "type" : "VEC3", "max" : [2.866687536239624, 4.570234298706055, 3.040778160095215], "min" : [-2.9172134399414062, 1.0146913528442383, -3.040778160095215], "name" : "POSITION"}, {"bufferView" : 4, "byteOffset" : 12, "componentType" : 5126, "count" : 660, "type" : "VEC3", "max" : [1.0000044107437134, 1.0000044107437134, 0.9882552623748779], "min" : [-1.0000044107437134, -1.0000044107437134, -0.9882552623748779], "name" : "NORMAL"}, {"bufferView" : 4, "byteOffset" : 24, "componentType" : 5126, "count" : 660, "type" : "VEC4", "max" : [0.9510608911514282, 0.9937072396278381, 1.0000044107437134, 1], "min" : [-1.0000044107437134, -0.5513352751731873, -1.0000044107437134, 1], "name" : "TANGENT"}, {"bufferView" : 4, "byteOffset" : 40, "componentType" : 5126, "count" : 660, "type" : "VEC2", "max" : [1.0000001192092896, 1], "min" : [5.960464477539063E-08, 0], "name" : "TEXCOORD_0"}, {"bufferView" : 0, "byteOffset" : 2616, "componentType" : 5123, "count" : 360, "type" : "SCALAR", "max" : [359], "min" : [0]}, {"bufferView" : 5, "byteOffset" : 0, "componentType" : 5126, "count" : 360, "type" : "VEC3", "max" : [1.2015191316604614, 2.5237374305725098, 1.2179391384124756], "min" : [-1.1151379346847534, -4.643133640289307, -1.2179388999938965], "name" : "POSITION"}, {"bufferView" : 5, "byteOffset" : 12, "componentType" : 5126, "count" : 360, "type" : "VEC3", "max" : [1.0000044107437134, 1.0000044107437134, 0.9510624408721924], "min" : [-1.0000044107437134, -1.0000044107437134, -0.9511085152626038], "name" : "NORMAL"}, {"bufferView" : 5, "byteOffset" : 24, "componentType" : 5126, "count" : 360, "type" : "VEC4", "max" : [0.9510618448257446, 1.0000044107437134, 1.0000044107437134, 1], "min" : [-0.9853502511978149, -0.3220022916793823, -0.8090273141860962, 1], "name" : "TANGENT"}, {"bufferView" : 5, "byteOffset" : 40, "componentType" : 5126, "count" : 360, "type" : "VEC2", "max" : [1, 1], "min" : [0, 0], "name" : "TEXCOORD_0"}], "asset" : {"generator" : "Aspose.3D 25.3.0", "version" : "2.0"}, "buffers" : [{"uri" : "data:application/octet-stream;base64,", "byteLength" : 83424}], "bufferViews" : [{"buffer" : 0, "byteOffset" : 0, "byteLength" : 3336, "target" : 34963}, {"buffer" : 0, "byteOffset" : 3340, "byteLength" : 9792, "byteStride" : 48, "target" : 34962}, {"buffer" : 0, "byteOffset" : 13136, "byteLength" : 9792, "byteStride" : 48, "target" : 34962}, {"buffer" : 0, "byteOffset" : 22932, "byteLength" : 11520, "byteStride" : 48, "target" : 34962}, {"buffer" : 0, "byteOffset" : 34456, "byteLength" : 31680, "byteStride" : 48, "target" : 34962}, {"buffer" : 0, "byteOffset" : 66140, "byteLength" : 17280, "byteStride" : 48, "target" : 34962}], "materials" : [{"name" : "blinn2", "pbrMetallicRoughness" : {"baseColorFactor" : [0.7746444344520569, 0.7843137383460999, 0.5536331534385681, 1], "metallicFactor" : 1, "roughnessFactor" : 1}, "emissiveFactor" : [0, 0, 0], "alphaMode" : "OPAQUE", "doubleSided" : false}, {"name" : "blinn12", "pbrMetallicRoughness" : {"baseColorFactor" : [0.953000009059906, 0.8486678600311279, 0.5822830200195312, 1], "metallicFactor" : 1, "roughnessFactor" : 1}, "emissiveFactor" : [0, 0, 0], "alphaMode" : "OPAQUE", "doubleSided" : false}, {"name" : "blinn13", "pbrMetallicRoughness" : {"baseColorFactor" : [0.8989999890327454, 0.4857763648033142, 0.21575996279716492, 1], "metallicFactor" : 1, "roughnessFactor" : 1}, "emissiveFactor" : [0, 0, 0], "alphaMode" : "OPAQUE", "doubleSided" : false}], "meshes" : [{"primitives" : [{"attributes" : {"POSITION" : 1, "NORMAL" : 2, "TANGENT" : 3, "TEXCOORD_0" : 4}, "indices" : 0, "material" : 0, "mode" : 4}], "name" : "Scene"}, {"primitives" : [{"attributes" : {"POSITION" : 6, "NORMAL" : 7, "TANGENT" : 8, "TEXCOORD_0" : 9}, "indices" : 5, "material" : 0, "mode" : 4}], "name" : "Scene"}, {"primitives" : [{"attributes" : {"POSITION" : 11, "NORMAL" : 12, "TANGENT" : 13, "TEXCOORD_0" : 14}, "indices" : 10, "material" : 1, "mode" : 4}], "name" : "Scene"}, {"primitives" : [{"attributes" : {"POSITION" : 16, "NORMAL" : 17, "TANGENT" : 18, "TEXCOORD_0" : 19}, "indices" : 15, "material" : 2, "mode" : 4}], "name" : "Scene"}, {"primitives" : [{"attributes" : {"POSITION" : 21, "NORMAL" : 22, "TANGENT" : 23, "TEXCOORD_0" : 24}, "indices" : 20, "material" : 0, "mode" : 4}], "name" : "Scene"}], "nodes" : [{"matrix" : [12.505888352700977, 0, 4.440107072000454, 0, 0, 1.381120204925537, 0, 0, -0.4620943952317578, 0, 1.3015228735404358, 0, 1.6680460423231125, 0.16300061251968145, 0.1784349326044321, 1], "mesh" : 0, "name" : "pCube6"}, {"matrix" : [-9.8806011345244, 9.303167832217526E-16, -8.217627026631133, 0, 1.6369419032692125E-16, 1.3374699354171753, -4.540559865724215E-17, 0, 0.8552315360961504, -1.3958227649040088E-16, -1.0283019244421563, 0, -1.1296463198959827, -1.6433525830507278, -1.4018373563885689, 1], "mesh" : 1, "name" : "pCube7"}, {"matrix" : [0.9453421235084534, 0, 0, 0, 0, 0.9453421235084534, 0, 0, 0, 0, 0.9453421235084534, 0, -0.11272334959357977, 2.998986095190048, -0.3050347790122032, 1], "mesh" : 2, "name" : "pCylinder1"}, {"matrix" : [1, 0, 0, 0, 0, 1, 0, 0, 0, 0, 1, 0, 0.026323317433707416, 0.9825600311160088, -0.34868912771344185, 1], "mesh" : 3, "name" : "pPipe12"}, {"matrix" : [1, 0, 0, 0, 0, 1, 0, 0, 0, 0, 1, 0, 0.04835319414269179, -0.03701007226482034, -0.3354157321155071, 1], "mesh" : 4, "name" : "pPipe13"}, {"children" : [0, 1, 2, 3, 4], "name" : "Modelo"}, {"children" : [5], "matrix" : [0.07000000029802322, 0, 0, 0, 0, 0.07000000029802322, 0, 0, 0, 0, 0.07000000029802322, 0, 0, 0, 0, 1], "name" : "Flor02"}], "scene" : 0, "scenes" : [{"nodes" : [6]}]}