{"accessors" : [{"bufferView" : 0, "byteOffset" : 0, "componentType" : 5123, "count" : 204, "type" : "SCALAR", "max" : [203], "min" : [0]}, {"bufferView" : 1, "byteOffset" : 0, "componentType" : 5126, "count" : 204, "type" : "VEC3", "max" : [0.16066458821296692, 0.16300061345100403, 0.6260668635368347], "min" : [-0.12588071823120117, -1.5329433679580688, -0.6260668635368347], "name" : "POSITION"}, {"bufferView" : 1, "byteOffset" : 12, "componentType" : 5126, "count" : 204, "type" : "VEC3", "max" : [1.0000044107437134, 0.3885056972503662, 0.9829314947128296], "min" : [-1.0000044107437134, -0.3885056972503662, -0.9829316139221191], "name" : "NORMAL"}, {"bufferView" : 1, "byteOffset" : 24, "componentType" : 5126, "count" : 204, "type" : "VEC4", "max" : [0.38774579763412476, 0.9910864233970642, 0.9851121306419373, 1], "min" : [-0.10412243753671646, -0.732961893081665, -1.0000044107437134, 1], "name" : "TANGENT"}, {"bufferView" : 1, "byteOffset" : 40, "componentType" : 5126, "count" : 204, "type" : "VEC2", "max" : [0.875, 1], "min" : [0.125, 0], "name" : "TEXCOORD_0"}, {"bufferView" : 0, "byteOffset" : 408, "componentType" : 5123, "count" : 204, "type" : "SCALAR", "max" : [203], "min" : [0]}, {"bufferView" : 2, "byteOffset" : 0, "componentType" : 5126, "count" : 204, "type" : "VEC3", "max" : [0.16066458821296692, 0.16300061345100403, 0.6260668635368347], "min" : [-0.12588071823120117, -1.5329433679580688, -0.6260668635368347], "name" : "POSITION"}, {"bufferView" : 2, "byteOffset" : 12, "componentType" : 5126, "count" : 204, "type" : "VEC3", "max" : [1.0000044107437134, 0.3885056972503662, 0.9829314947128296], "min" : [-1.0000044107437134, -0.3885056972503662, -0.9829316139221191], "name" : "NORMAL"}, {"bufferView" : 2, "byteOffset" : 24, "componentType" : 5126, "count" : 204, "type" : "VEC4", "max" : [0.38774579763412476, 0.9910864233970642, 0.9851121306419373, 1], "min" : [-0.10412243753671646, -0.732961893081665, -1.0000044107437134, 1], "name" : "TANGENT"}, {"bufferView" : 2, "byteOffset" : 40, "componentType" : 5126, "count" : 204, "type" : "VEC2", "max" : [0.875, 1], "min" : [0.125, 0], "name" : "TEXCOORD_0"}, {"bufferView" : 0, "byteOffset" : 816, "componentType" : 5123, "count" : 240, "type" : "SCALAR", "max" : [239], "min" : [0]}, {"bufferView" : 3, "byteOffset" : 0, "componentType" : 5126, "count" : 240, "type" : "VEC3", "max" : [1.2938755750656128, 0.5767546892166138, 1.2938756942749023], "min" : [-1.2938756942749023, -0.5767546892166138, -1.2938761711120605], "name" : "POSITION"}, {"bufferView" : 3, "byteOffset" : 12, "componentType" : 5126, "count" : 240, "type" : "VEC3", "max" : [0.8279943466186523, 1.0000044107437134, 0.8279942274093628], "min" : [-0.8279942274093628, -1.0000044107437134, -0.8279942274093628], "name" : "NORMAL"}, {"bufferView" : 3, "byteOffset" : 24, "componentType" : 5126, "count" : 240, "type" : "VEC4", "max" : [1.0000044107437134, 0.07324854284524918, 1.0000044107437134, 1], "min" : [-1.0000044107437134, -0.07324851304292679, -1.0000044107437134, 1], "name" : "TANGENT"}, {"bufferView" : 3, "byteOffset" : 40, "componentType" : 5126, "count" : 240, "type" : "VEC2", "max" : [0.65625, 1.0000001192092896], "min" : [0.3437499701976776, 0], "name" : "TEXCOORD_0"}, {"bufferView" : 0, "byteOffset" : 1296, "componentType" : 5123, "count" : 360, "type" : "SCALAR", "max" : [359], "min" : [0]}, {"bufferView" : 4, "byteOffset" : 0, "componentType" : 5126, "count" : 360, "type" : "VEC3", "max" : [1.1140130758285522, 3.22916316986084, 1.1259297132492065], "min" : [-1.0276318788528442, -4.643133640289307, -1.125929594039917], "name" : "POSITION"}, {"bufferView" : 4, "byteOffset" : 12, "componentType" : 5126, "count" : 360, "type" : "VEC3", "max" : [1.0000044107437134, 1.0000044107437134, 0.9510624408721924], "min" : [-1.0000044107437134, -1.0000044107437134, -0.9511085152626038], "name" : "NORMAL"}, {"bufferView" : 4, "byteOffset" : 24, "componentType" : 5126, "count" : 360, "type" : "VEC4", "max" : [0.9510618448257446, 1.0000044107437134, 1.0000044107437134, 1], "min" : [-0.9660423994064331, -0.3044060170650482, -0.8090273141860962, 1], "name" : "TANGENT"}, {"bufferView" : 4, "byteOffset" : 40, "componentType" : 5126, "count" : 360, "type" : "VEC2", "max" : [1, 1], "min" : [0, 0], "name" : "TEXCOORD_0"}, {"bufferView" : 0, "byteOffset" : 2016, "componentType" : 5123, "count" : 480, "type" : "SCALAR", "max" : [479], "min" : [0]}, {"bufferView" : 5, "byteOffset" : 0, "componentType" : 5126, "count" : 480, "type" : "VEC3", "max" : [4.297575950622559, 3.250683069229126, 4.297575950622559], "min" : [-4.297568321228027, -1.0056118965148926, -4.297576904296875], "name" : "POSITION"}, {"bufferView" : 5, "byteOffset" : 12, "componentType" : 5126, "count" : 480, "type" : "VEC3", "max" : [0.8734908103942871, 1.0000044107437134, 0.8734907507896423], "min" : [-0.8734883069992065, -1.0000044107437134, -0.8734906315803528], "name" : "NORMAL"}, {"bufferView" : 5, "byteOffset" : 24, "componentType" : 5126, "count" : 480, "type" : "VEC4", "max" : [1.0000044107437134, 0.19733738899230957, 1.0000044107437134, 1], "min" : [-1.0000044107437134, -0.19733762741088867, -0.9238852858543396, 1], "name" : "TANGENT"}, {"bufferView" : 5, "byteOffset" : 40, "componentType" : 5126, "count" : 480, "type" : "VEC2", "max" : [1, 1], "min" : [0, 0], "name" : "TEXCOORD_0"}], "asset" : {"generator" : "Aspose.3D 25.3.0", "version" : "2.0"}, "buffers" : [{"uri" : "data:application/octet-stream;base64,", "byteLength" : 74424}], "bufferViews" : [{"buffer" : 0, "byteOffset" : 0, "byteLength" : 2976, "target" : 34963}, {"buffer" : 0, "byteOffset" : 2980, "byteLength" : 9792, "byteStride" : 48, "target" : 34962}, {"buffer" : 0, "byteOffset" : 12776, "byteLength" : 9792, "byteStride" : 48, "target" : 34962}, {"buffer" : 0, "byteOffset" : 22572, "byteLength" : 11520, "byteStride" : 48, "target" : 34962}, {"buffer" : 0, "byteOffset" : 34096, "byteLength" : 17280, "byteStride" : 48, "target" : 34962}, {"buffer" : 0, "byteOffset" : 51380, "byteLength" : 23040, "byteStride" : 48, "target" : 34962}], "materials" : [{"name" : "blinn2", "pbrMetallicRoughness" : {"baseColorFactor" : [0.7746444344520569, 0.7843137383460999, 0.5536331534385681, 1], "metallicFactor" : 1, "roughnessFactor" : 1}, "emissiveFactor" : [0, 0, 0], "alphaMode" : "OPAQUE", "doubleSided" : false}, {"name" : "blinn12", "pbrMetallicRoughness" : {"baseColorFactor" : [0.953000009059906, 0.8486678600311279, 0.5822830200195312, 1], "metallicFactor" : 1, "roughnessFactor" : 1}, "emissiveFactor" : [0, 0, 0], "alphaMode" : "OPAQUE", "doubleSided" : false}, {"name" : "blinn14", "pbrMetallicRoughness" : {"baseColorFactor" : [0.3869503140449524, 0.15083494782447815, 0.48500001430511475, 1], "metallicFactor" : 1, "roughnessFactor" : 1}, "emissiveFactor" : [0, 0, 0], "alphaMode" : "OPAQUE", "doubleSided" : false}], "meshes" : [{"primitives" : [{"attributes" : {"POSITION" : 1, "NORMAL" : 2, "TANGENT" : 3, "TEXCOORD_0" : 4}, "indices" : 0, "material" : 0, "mode" : 4}], "name" : "Scene"}, {"primitives" : [{"attributes" : {"POSITION" : 6, "NORMAL" : 7, "TANGENT" : 8, "TEXCOORD_0" : 9}, "indices" : 5, "material" : 0, "mode" : 4}], "name" : "Scene"}, {"primitives" : [{"attributes" : {"POSITION" : 11, "NORMAL" : 12, "TANGENT" : 13, "TEXCOORD_0" : 14}, "indices" : 10, "material" : 1, "mode" : 4}], "name" : "Scene"}, {"primitives" : [{"attributes" : {"POSITION" : 16, "NORMAL" : 17, "TANGENT" : 18, "TEXCOORD_0" : 19}, "indices" : 15, "material" : 0, "mode" : 4}], "name" : "Scene"}, {"primitives" : [{"attributes" : {"POSITION" : 21, "NORMAL" : 22, "TANGENT" : 23, "TEXCOORD_0" : 24}, "indices" : 20, "material" : 2, "mode" : 4}], "name" : "Scene"}], "nodes" : [{"matrix" : [12.505888352700977, 0, 4.440107072000454, 0, 0, 1.381120204925537, 0, 0, -0.4620943952317578, 0, 1.3015228735404358, 0, 1.449329312890768, 0.16300061251968145, 0.4709961358457804, 1], "mesh" : 0, "name" : "pCube8"}, {"matrix" : [-9.8806011345244, 9.303167832217526E-16, -8.217627026631133, 0, 1.6369419032692125E-16, 1.3374699354171753, -4.540559865724215E-17, 0, 0.8552315360961504, -1.3958227649040088E-16, -1.0283019244421563, 0, -1.3483633287250996, 1.662091538310051, -1.1092761531472206, 1], "mesh" : 1, "name" : "pCube9"}, {"matrix" : [0.9453421235084534, 0, 0, 0, 0, 0.9453421235084534, 0, 0, 0, 0, 0.9453421235084534, 0, -0.13913296861574054, 4.102086275815964, -0.04163638805039227, 1], "mesh" : 2, "name" : "pCylinder2"}, {"matrix" : [1, 0, 0, 0, 0, 1, 0, 0, 0, 0, 1, 0, -0.17036390490829945, -0.03701007226482034, -0.04285455506760627, 1], "mesh" : 3, "name" : "pPipe15"}, {"matrix" : [0.8306025862693787, 0, 0, 0, 0, 0.9787570238113403, 0, 0, 0, 0, 0.8306025862693787, 0, -0.14095734804868698, 3.269089013338089, -0.004968882421962917, 1], "mesh" : 4, "name" : "pPipe16"}, {"children" : [0, 1, 2, 3, 4], "name" : "Modelo"}, {"children" : [5], "matrix" : [0.07000000029802322, 0, 0, 0, 0, 0.07000000029802322, 0, 0, 0, 0, 0.07000000029802322, 0, 0, 0, 0, 1], "name" : "Flor03"}], "scene" : 0, "scenes" : [{"nodes" : [6]}]}