{"accessors" : [{"bufferView" : 0, "byteOffset" : 0, "componentType" : 5123, "count" : 204, "type" : "SCALAR", "max" : [203], "min" : [0]}, {"bufferView" : 1, "byteOffset" : 0, "componentType" : 5126, "count" : 204, "type" : "VEC3", "max" : [0.16066458821296692, 0.16300061345100403, 0.6260668635368347], "min" : [-0.12588071823120117, -1.5329433679580688, -0.6260668635368347], "name" : "POSITION"}, {"bufferView" : 1, "byteOffset" : 12, "componentType" : 5126, "count" : 204, "type" : "VEC3", "max" : [1.0000044107437134, 0.3885056972503662, 0.9829314947128296], "min" : [-1.0000044107437134, -0.3885056972503662, -0.9829316139221191], "name" : "NORMAL"}, {"bufferView" : 1, "byteOffset" : 24, "componentType" : 5126, "count" : 204, "type" : "VEC4", "max" : [0.38774579763412476, 0.9910864233970642, 0.9851121306419373, 1], "min" : [-0.10412243753671646, -0.732961893081665, -1.0000044107437134, 1], "name" : "TANGENT"}, {"bufferView" : 1, "byteOffset" : 40, "componentType" : 5126, "count" : 204, "type" : "VEC2", "max" : [0.875, 1], "min" : [0.125, 0], "name" : "TEXCOORD_0"}, {"bufferView" : 0, "byteOffset" : 408, "componentType" : 5123, "count" : 204, "type" : "SCALAR", "max" : [203], "min" : [0]}, {"bufferView" : 2, "byteOffset" : 0, "componentType" : 5126, "count" : 204, "type" : "VEC3", "max" : [0.16066458821296692, 0.16300061345100403, 0.6260668635368347], "min" : [-0.12588071823120117, -1.5329433679580688, -0.6260668635368347], "name" : "POSITION"}, {"bufferView" : 2, "byteOffset" : 12, "componentType" : 5126, "count" : 204, "type" : "VEC3", "max" : [1.0000044107437134, 0.3885056972503662, 0.9829314947128296], "min" : [-1.0000044107437134, -0.3885056972503662, -0.9829316139221191], "name" : "NORMAL"}, {"bufferView" : 2, "byteOffset" : 24, "componentType" : 5126, "count" : 204, "type" : "VEC4", "max" : [0.38774579763412476, 0.9910864233970642, 0.9851121306419373, 1], "min" : [-0.10412243753671646, -0.732961893081665, -1.0000044107437134, 1], "name" : "TANGENT"}, {"bufferView" : 2, "byteOffset" : 40, "componentType" : 5126, "count" : 204, "type" : "VEC2", "max" : [0.875, 1], "min" : [0.125, 0], "name" : "TEXCOORD_0"}, {"bufferView" : 0, "byteOffset" : 816, "componentType" : 5123, "count" : 240, "type" : "SCALAR", "max" : [239], "min" : [0]}, {"bufferView" : 3, "byteOffset" : 0, "componentType" : 5126, "count" : 240, "type" : "VEC3", "max" : [1.2938755750656128, 0.5767546892166138, 1.2938756942749023], "min" : [-1.2938756942749023, -0.5767546892166138, -1.2938761711120605], "name" : "POSITION"}, {"bufferView" : 3, "byteOffset" : 12, "componentType" : 5126, "count" : 240, "type" : "VEC3", "max" : [0.8279943466186523, 1.0000044107437134, 0.8279942274093628], "min" : [-0.8279942274093628, -1.0000044107437134, -0.8279942274093628], "name" : "NORMAL"}, {"bufferView" : 3, "byteOffset" : 24, "componentType" : 5126, "count" : 240, "type" : "VEC4", "max" : [1.0000044107437134, 0.07324854284524918, 1.0000044107437134, 1], "min" : [-1.0000044107437134, -0.07324851304292679, -1.0000044107437134, 1], "name" : "TANGENT"}, {"bufferView" : 3, "byteOffset" : 40, "componentType" : 5126, "count" : 240, "type" : "VEC2", "max" : [0.65625, 1.0000001192092896], "min" : [0.3437499701976776, 0], "name" : "TEXCOORD_0"}, {"bufferView" : 0, "byteOffset" : 1296, "componentType" : 5123, "count" : 360, "type" : "SCALAR", "max" : [359], "min" : [0]}, {"bufferView" : 4, "byteOffset" : 0, "componentType" : 5126, "count" : 360, "type" : "VEC3", "max" : [1.1140130758285522, 2.560201644897461, 1.1259297132492065], "min" : [-1.0276318788528442, -4.643133640289307, -1.125929594039917], "name" : "POSITION"}, {"bufferView" : 4, "byteOffset" : 12, "componentType" : 5126, "count" : 360, "type" : "VEC3", "max" : [1.0000044107437134, 1.0000044107437134, 0.9510624408721924], "min" : [-1.0000044107437134, -1.0000044107437134, -0.9511085152626038], "name" : "NORMAL"}, {"bufferView" : 4, "byteOffset" : 24, "componentType" : 5126, "count" : 360, "type" : "VEC4", "max" : [0.9510618448257446, 1.0000044107437134, 1.0000044107437134, 1], "min" : [-0.9822370409965515, -0.32491469383239746, -0.8090273141860962, 1], "name" : "TANGENT"}, {"bufferView" : 4, "byteOffset" : 40, "componentType" : 5126, "count" : 360, "type" : "VEC2", "max" : [1, 1], "min" : [0, 0], "name" : "TEXCOORD_0"}, {"bufferView" : 0, "byteOffset" : 2016, "componentType" : 5123, "count" : 432, "type" : "SCALAR", "max" : [431], "min" : [0]}, {"bufferView" : 5, "byteOffset" : 0, "componentType" : 5126, "count" : 432, "type" : "VEC3", "max" : [2.4595775604248047, 1.1793475151062012, 2.4777164459228516], "min" : [-2.4205799102783203, -0.3793473243713379, -2.4777164459228516], "name" : "POSITION"}, {"bufferView" : 5, "byteOffset" : 12, "componentType" : 5126, "count" : 432, "type" : "VEC3", "max" : [0.948233962059021, 1.0000044107437134, 0.968906044960022], "min" : [-0.9596811532974243, -1.0000044107437134, -0.9689061641693115], "name" : "NORMAL"}, {"bufferView" : 5, "byteOffset" : 24, "componentType" : 5126, "count" : 432, "type" : "VEC4", "max" : [0.9848121404647827, 0.9738390445709229, 1.0000044107437134, 1], "min" : [-1.0000044107437134, -0.35337284207344055, -0.9396973848342896, 1], "name" : "TANGENT"}, {"bufferView" : 5, "byteOffset" : 40, "componentType" : 5126, "count" : 432, "type" : "VEC2", "max" : [1, 1], "min" : [0, 0], "name" : "TEXCOORD_0"}], "asset" : {"generator" : "Aspose.3D 25.3.0", "version" : "2.0"}, "buffers" : [{"uri" : "data:application/octet-stream;base64,", "byteLength" : 72024}], "bufferViews" : [{"buffer" : 0, "byteOffset" : 0, "byteLength" : 2880, "target" : 34963}, {"buffer" : 0, "byteOffset" : 2884, "byteLength" : 9792, "byteStride" : 48, "target" : 34962}, {"buffer" : 0, "byteOffset" : 12680, "byteLength" : 9792, "byteStride" : 48, "target" : 34962}, {"buffer" : 0, "byteOffset" : 22476, "byteLength" : 11520, "byteStride" : 48, "target" : 34962}, {"buffer" : 0, "byteOffset" : 34000, "byteLength" : 17280, "byteStride" : 48, "target" : 34962}, {"buffer" : 0, "byteOffset" : 51284, "byteLength" : 20736, "byteStride" : 48, "target" : 34962}], "materials" : [{"name" : "blinn2", "pbrMetallicRoughness" : {"baseColorFactor" : [0.7746444344520569, 0.7843137383460999, 0.5536331534385681, 1], "metallicFactor" : 1, "roughnessFactor" : 1}, "emissiveFactor" : [0, 0, 0], "alphaMode" : "OPAQUE", "doubleSided" : false}, {"name" : "blinn12", "pbrMetallicRoughness" : {"baseColorFactor" : [0.953000009059906, 0.8486678600311279, 0.5822830200195312, 1], "metallicFactor" : 1, "roughnessFactor" : 1}, "emissiveFactor" : [0, 0, 0], "alphaMode" : "OPAQUE", "doubleSided" : false}, {"name" : "blinn15", "pbrMetallicRoughness" : {"baseColorFactor" : [1, 0.9058277606964111, 0.46699994802474976, 1], "metallicFactor" : 1, "roughnessFactor" : 1}, "emissiveFactor" : [0, 0, 0], "alphaMode" : "OPAQUE", "doubleSided" : false}], "meshes" : [{"primitives" : [{"attributes" : {"POSITION" : 1, "NORMAL" : 2, "TANGENT" : 3, "TEXCOORD_0" : 4}, "indices" : 0, "material" : 0, "mode" : 4}], "name" : "Scene"}, {"primitives" : [{"attributes" : {"POSITION" : 6, "NORMAL" : 7, "TANGENT" : 8, "TEXCOORD_0" : 9}, "indices" : 5, "material" : 0, "mode" : 4}], "name" : "Scene"}, {"primitives" : [{"attributes" : {"POSITION" : 11, "NORMAL" : 12, "TANGENT" : 13, "TEXCOORD_0" : 14}, "indices" : 10, "material" : 1, "mode" : 4}], "name" : "Scene"}, {"primitives" : [{"attributes" : {"POSITION" : 16, "NORMAL" : 17, "TANGENT" : 18, "TEXCOORD_0" : 19}, "indices" : 15, "material" : 0, "mode" : 4}], "name" : "Scene"}, {"primitives" : [{"attributes" : {"POSITION" : 21, "NORMAL" : 22, "TANGENT" : 23, "TEXCOORD_0" : 24}, "indices" : 20, "material" : 2, "mode" : 4}], "name" : "Scene"}], "nodes" : [{"matrix" : [6.919597462474361, 0, -2.238566780289056, 0, 0, 0.7568891644477844, 0, 0, 0.23038532691290492, 0, 0.7121403469107205, 0, 0.855268444865942, 0.16300061251968145, -0.3571098670363426, 1], "mesh" : 0, "name" : "pCube10"}, {"matrix" : [-5.414822281368361, 5.098374054305518E-16, -4.503469912199724, 0, 8.970860325963504E-17, 0.732967734336853, -2.488342944593105E-17, 0, 0.4634811073772541, -7.56447176554254E-17, -0.5572742521096999, 0, -0.5803680513054132, 1.2280662544071674, -0.6889956537634134, 1], "mesh" : 1, "name" : "pCube11"}, {"matrix" : [0.7391182780265808, 0, 0, 0, 0, 0.7391182780265808, 0, 0, 0, 0, 0.7391182780265808, 0, -0.07156181382015347, 2.5910047814249992, -0.1248506479896605, 1], "mesh" : 2, "name" : "pCylinder3"}, {"matrix" : [1, 0, 0, 0, 0, 1, 0, 0, 0, 0, 1, 0, 0.014652252139057964, -0.03701007226482034, -0.14336940366774797, 1], "mesh" : 3, "name" : "pPipe17"}, {"matrix" : [1, 0, 0, 0, 0, 1, 0, 0, 0, 0, 1, 0, -0.06639289786107838, 2.8298823162913322, -0.1429563038982451, 1], "mesh" : 4, "name" : "pPipe19"}, {"children" : [0, 1, 2, 3, 4], "name" : "Modelo"}, {"children" : [5], "matrix" : [0.07000000029802322, 0, 0, 0, 0, 0.07000000029802322, 0, 0, 0, 0, 0.07000000029802322, 0, 0, 0, 0, 1], "name" : "Flor04"}], "scene" : 0, "scenes" : [{"nodes" : [6]}]}