{"accessors" : [{"bufferView" : 0, "byteOffset" : 0, "componentType" : 5123, "count" : 204, "type" : "SCALAR", "max" : [203], "min" : [0]}, {"bufferView" : 1, "byteOffset" : 0, "componentType" : 5126, "count" : 204, "type" : "VEC3", "max" : [0.16066458821296692, 0.16300061345100403, 0.6260668635368347], "min" : [-0.12588071823120117, -1.5329433679580688, -0.6260668635368347], "name" : "POSITION"}, {"bufferView" : 1, "byteOffset" : 12, "componentType" : 5126, "count" : 204, "type" : "VEC3", "max" : [1.0000044107437134, 0.3885056972503662, 0.9829314947128296], "min" : [-1.0000044107437134, -0.3885056972503662, -0.9829316139221191], "name" : "NORMAL"}, {"bufferView" : 1, "byteOffset" : 24, "componentType" : 5126, "count" : 204, "type" : "VEC4", "max" : [0.38774579763412476, 0.9910864233970642, 0.9851121306419373, 1], "min" : [-0.10412243753671646, -0.732961893081665, -1.0000044107437134, 1], "name" : "TANGENT"}, {"bufferView" : 1, "byteOffset" : 40, "componentType" : 5126, "count" : 204, "type" : "VEC2", "max" : [0.875, 1], "min" : [0.125, 0], "name" : "TEXCOORD_0"}, {"bufferView" : 0, "byteOffset" : 408, "componentType" : 5123, "count" : 204, "type" : "SCALAR", "max" : [203], "min" : [0]}, {"bufferView" : 2, "byteOffset" : 0, "componentType" : 5126, "count" : 204, "type" : "VEC3", "max" : [0.16066458821296692, 0.16300061345100403, 0.6260668635368347], "min" : [-0.12588071823120117, -1.5329433679580688, -0.6260668635368347], "name" : "POSITION"}, {"bufferView" : 2, "byteOffset" : 12, "componentType" : 5126, "count" : 204, "type" : "VEC3", "max" : [1.0000044107437134, 0.3885056972503662, 0.9829314947128296], "min" : [-1.0000044107437134, -0.3885056972503662, -0.9829316139221191], "name" : "NORMAL"}, {"bufferView" : 2, "byteOffset" : 24, "componentType" : 5126, "count" : 204, "type" : "VEC4", "max" : [0.38774579763412476, 0.9910864233970642, 0.9851121306419373, 1], "min" : [-0.10412243753671646, -0.732961893081665, -1.0000044107437134, 1], "name" : "TANGENT"}, {"bufferView" : 2, "byteOffset" : 40, "componentType" : 5126, "count" : 204, "type" : "VEC2", "max" : [0.875, 1], "min" : [0.125, 0], "name" : "TEXCOORD_0"}, {"bufferView" : 0, "byteOffset" : 816, "componentType" : 5123, "count" : 204, "type" : "SCALAR", "max" : [203], "min" : [0]}, {"bufferView" : 3, "byteOffset" : 0, "componentType" : 5126, "count" : 204, "type" : "VEC3", "max" : [0.16066458821296692, 0.16300061345100403, 0.6260668635368347], "min" : [-0.12588071823120117, -1.5329433679580688, -0.6260668635368347], "name" : "POSITION"}, {"bufferView" : 3, "byteOffset" : 12, "componentType" : 5126, "count" : 204, "type" : "VEC3", "max" : [1.0000044107437134, 0.3885056972503662, 0.9829314947128296], "min" : [-1.0000044107437134, -0.3885056972503662, -0.9829316139221191], "name" : "NORMAL"}, {"bufferView" : 3, "byteOffset" : 24, "componentType" : 5126, "count" : 204, "type" : "VEC4", "max" : [0.38774579763412476, 0.9910864233970642, 0.9851121306419373, 1], "min" : [-0.10412243753671646, -0.732961893081665, -1.0000044107437134, 1], "name" : "TANGENT"}, {"bufferView" : 3, "byteOffset" : 40, "componentType" : 5126, "count" : 204, "type" : "VEC2", "max" : [0.875, 1], "min" : [0.125, 0], "name" : "TEXCOORD_0"}, {"bufferView" : 0, "byteOffset" : 1224, "componentType" : 5123, "count" : 540, "type" : "SCALAR", "max" : [539], "min" : [0]}, {"bufferView" : 4, "byteOffset" : 0, "componentType" : 5126, "count" : 540, "type" : "VEC3", "max" : [1.46211838722229, 4.070915222167969, 1.515038251876831], "min" : [-1.4196555614471436, 1.0146913528442383, -1.515038251876831], "name" : "POSITION"}, {"bufferView" : 4, "byteOffset" : 12, "componentType" : 5126, "count" : 540, "type" : "VEC3", "max" : [1.0000044107437134, 1.0000044107437134, 0.9999912977218628], "min" : [-1.0000044107437134, -1.0000044107437134, -0.9999912977218628], "name" : "NORMAL"}, {"bufferView" : 4, "byteOffset" : 24, "componentType" : 5126, "count" : 540, "type" : "VEC4", "max" : [0.9510608911514282, 0.5562852025032043, 0, 1], "min" : [-1.0000044107437134, -0.551335334777832, -1.0000044107437134, 1], "name" : "TANGENT"}, {"bufferView" : 4, "byteOffset" : 40, "componentType" : 5126, "count" : 540, "type" : "VEC2", "max" : [1.0000001192092896, 1], "min" : [5.960464477539063E-08, 0], "name" : "TEXCOORD_0"}, {"bufferView" : 0, "byteOffset" : 2304, "componentType" : 5123, "count" : 360, "type" : "SCALAR", "max" : [359], "min" : [0]}, {"bufferView" : 5, "byteOffset" : 0, "componentType" : 5126, "count" : 360, "type" : "VEC3", "max" : [1.2015191316604614, 2.5237374305725098, 1.2179391384124756], "min" : [-1.1151379346847534, -4.643133640289307, -1.2179388999938965], "name" : "POSITION"}, {"bufferView" : 5, "byteOffset" : 12, "componentType" : 5126, "count" : 360, "type" : "VEC3", "max" : [1.0000044107437134, 1.0000044107437134, 0.9510624408721924], "min" : [-1.0000044107437134, -1.0000044107437134, -0.9511038661003113], "name" : "NORMAL"}, {"bufferView" : 5, "byteOffset" : 24, "componentType" : 5126, "count" : 360, "type" : "VEC4", "max" : [0.9510618448257446, 1.0000044107437134, 1.0000044107437134, 1], "min" : [-0.9853502511978149, -0.3220022916793823, -0.8090273141860962, 1], "name" : "TANGENT"}, {"bufferView" : 5, "byteOffset" : 40, "componentType" : 5126, "count" : 360, "type" : "VEC2", "max" : [1, 1], "min" : [0, 0], "name" : "TEXCOORD_0"}, {"bufferView" : 0, "byteOffset" : 3024, "componentType" : 5123, "count" : 120, "type" : "SCALAR", "max" : [119], "min" : [0]}, {"bufferView" : 6, "byteOffset" : 0, "componentType" : 5126, "count" : 120, "type" : "VEC3", "max" : [0.5717008113861084, 1.6961371898651123, 0.5437197685241699], "min" : [-0.4625157117843628, -1.6961371898651123, -0.5437197685241699], "name" : "POSITION"}, {"bufferView" : 6, "byteOffset" : 12, "componentType" : 5126, "count" : 120, "type" : "VEC3", "max" : [1.0000044107437134, 1.0000044107437134, 0.9510607123374939], "min" : [-1.0000044107437134, -1.0000044107437134, -0.9510607123374939], "name" : "NORMAL"}, {"bufferView" : 6, "byteOffset" : 24, "componentType" : 5126, "count" : 120, "type" : "VEC4", "max" : [0.9510607719421387, 3.1521815913038154E-07, 1.0000044107437134, 1], "min" : [-0.9510607123374939, -3.1521815913038154E-07, -0.8090206384658813, 1], "name" : "TANGENT"}, {"bufferView" : 6, "byteOffset" : 40, "componentType" : 5126, "count" : 120, "type" : "VEC2", "max" : [1, 1], "min" : [0, 0], "name" : "TEXCOORD_0"}, {"bufferView" : 0, "byteOffset" : 3264, "componentType" : 5123, "count" : 540, "type" : "SCALAR", "max" : [539], "min" : [0]}, {"bufferView" : 7, "byteOffset" : 0, "componentType" : 5126, "count" : 540, "type" : "VEC3", "max" : [1.46211838722229, 4.070915222167969, 1.515038251876831], "min" : [-1.4196555614471436, 1.0146913528442383, -1.515038251876831], "name" : "POSITION"}, {"bufferView" : 7, "byteOffset" : 12, "componentType" : 5126, "count" : 540, "type" : "VEC3", "max" : [1.0000044107437134, 1.0000044107437134, 0.9999912977218628], "min" : [-1.0000044107437134, -1.0000044107437134, -0.9999912977218628], "name" : "NORMAL"}, {"bufferView" : 7, "byteOffset" : 24, "componentType" : 5126, "count" : 540, "type" : "VEC4", "max" : [0.9510608911514282, 0.5562852025032043, 0, 1], "min" : [-1.0000044107437134, -0.551335334777832, -1.0000044107437134, 1], "name" : "TANGENT"}, {"bufferView" : 7, "byteOffset" : 40, "componentType" : 5126, "count" : 540, "type" : "VEC2", "max" : [1.0000001192092896, 1], "min" : [5.960464477539063E-08, 0], "name" : "TEXCOORD_0"}, {"bufferView" : 0, "byteOffset" : 4344, "componentType" : 5123, "count" : 360, "type" : "SCALAR", "max" : [359], "min" : [0]}, {"bufferView" : 8, "byteOffset" : 0, "componentType" : 5126, "count" : 360, "type" : "VEC3", "max" : [1.147321343421936, 2.896622657775879, 1.0671851634979248], "min" : [-1.164515733718872, -4.640003681182861, -1.2593930959701538], "name" : "POSITION"}, {"bufferView" : 8, "byteOffset" : 12, "componentType" : 5126, "count" : 360, "type" : "VEC3", "max" : [1.0000044107437134, 0.9451913237571716, 0.9510601758956909], "min" : [-1.0000044107437134, -1.0000044107437134, -0.9511073231697083], "name" : "NORMAL"}, {"bufferView" : 8, "byteOffset" : 24, "componentType" : 5126, "count" : 360, "type" : "VEC4", "max" : [0.9810985922813416, 1.0000044107437134, 1.0000044107437134, 1], "min" : [-0.9991817474365234, -0.5654183030128479, -0.8113729953765869, 1], "name" : "TANGENT"}, {"bufferView" : 8, "byteOffset" : 40, "componentType" : 5126, "count" : 360, "type" : "VEC2", "max" : [1, 1], "min" : [0, 0], "name" : "TEXCOORD_0"}, {"bufferView" : 0, "byteOffset" : 5064, "componentType" : 5123, "count" : 120, "type" : "SCALAR", "max" : [119], "min" : [0]}, {"bufferView" : 9, "byteOffset" : 0, "componentType" : 5126, "count" : 120, "type" : "VEC3", "max" : [0.5717008113861084, 1.6961371898651123, 0.5437197685241699], "min" : [-0.4625157117843628, -1.6961371898651123, -0.5437197685241699], "name" : "POSITION"}, {"bufferView" : 9, "byteOffset" : 12, "componentType" : 5126, "count" : 120, "type" : "VEC3", "max" : [1.0000044107437134, 1.0000044107437134, 0.9510607123374939], "min" : [-1.0000044107437134, -1.0000044107437134, -0.9510607123374939], "name" : "NORMAL"}, {"bufferView" : 9, "byteOffset" : 24, "componentType" : 5126, "count" : 120, "type" : "VEC4", "max" : [0.9510607719421387, 3.1521815913038154E-07, 1.0000044107437134, 1], "min" : [-0.9510607123374939, -3.1521815913038154E-07, -0.8090206384658813, 1], "name" : "TANGENT"}, {"bufferView" : 9, "byteOffset" : 40, "componentType" : 5126, "count" : 120, "type" : "VEC2", "max" : [1, 1], "min" : [0, 0], "name" : "TEXCOORD_0"}], "asset" : {"generator" : "Aspose.3D 25.3.0", "version" : "2.0"}, "buffers" : [{"uri" : "data:application/octet-stream;base64,", "byteLength" : 132640}], "bufferViews" : [{"buffer" : 0, "byteOffset" : 0, "byteLength" : 5304, "target" : 34963}, {"buffer" : 0, "byteOffset" : 5308, "byteLength" : 9792, "byteStride" : 48, "target" : 34962}, {"buffer" : 0, "byteOffset" : 15104, "byteLength" : 9792, "byteStride" : 48, "target" : 34962}, {"buffer" : 0, "byteOffset" : 24900, "byteLength" : 9792, "byteStride" : 48, "target" : 34962}, {"buffer" : 0, "byteOffset" : 34696, "byteLength" : 25920, "byteStride" : 48, "target" : 34962}, {"buffer" : 0, "byteOffset" : 60620, "byteLength" : 17280, "byteStride" : 48, "target" : 34962}, {"buffer" : 0, "byteOffset" : 77904, "byteLength" : 5760, "byteStride" : 48, "target" : 34962}, {"buffer" : 0, "byteOffset" : 83668, "byteLength" : 25920, "byteStride" : 48, "target" : 34962}, {"buffer" : 0, "byteOffset" : 109592, "byteLength" : 17280, "byteStride" : 48, "target" : 34962}, {"buffer" : 0, "byteOffset" : 126876, "byteLength" : 5760, "byteStride" : 48, "target" : 34962}], "materials" : [{"name" : "blinn2", "pbrMetallicRoughness" : {"baseColorFactor" : [0.7746444344520569, 0.7843137383460999, 0.5536331534385681, 1], "metallicFactor" : 1, "roughnessFactor" : 1}, "emissiveFactor" : [0, 0, 0], "alphaMode" : "OPAQUE", "doubleSided" : false}, {"name" : "blinn1", "pbrMetallicRoughness" : {"baseColorFactor" : [0.6343293190002441, 0.39881202578544617, 0.7160000205039978, 1], "metallicFactor" : 1, "roughnessFactor" : 1}, "emissiveFactor" : [0, 0, 0], "alphaMode" : "OPAQUE", "doubleSided" : false}], "meshes" : [{"primitives" : [{"attributes" : {"POSITION" : 1, "NORMAL" : 2, "TANGENT" : 3, "TEXCOORD_0" : 4}, "indices" : 0, "material" : 0, "mode" : 4}], "name" : "Scene"}, {"primitives" : [{"attributes" : {"POSITION" : 6, "NORMAL" : 7, "TANGENT" : 8, "TEXCOORD_0" : 9}, "indices" : 5, "material" : 0, "mode" : 4}], "name" : "Scene"}, {"primitives" : [{"attributes" : {"POSITION" : 11, "NORMAL" : 12, "TANGENT" : 13, "TEXCOORD_0" : 14}, "indices" : 10, "material" : 0, "mode" : 4}], "name" : "Scene"}, {"primitives" : [{"attributes" : {"POSITION" : 16, "NORMAL" : 17, "TANGENT" : 18, "TEXCOORD_0" : 19}, "indices" : 15, "material" : 1, "mode" : 4}], "name" : "Scene"}, {"primitives" : [{"attributes" : {"POSITION" : 21, "NORMAL" : 22, "TANGENT" : 23, "TEXCOORD_0" : 24}, "indices" : 20, "material" : 0, "mode" : 4}], "name" : "Scene"}, {"primitives" : [{"attributes" : {"POSITION" : 26, "NORMAL" : 27, "TANGENT" : 28, "TEXCOORD_0" : 29}, "indices" : 25, "material" : 0, "mode" : 4}], "name" : "Scene"}, {"primitives" : [{"attributes" : {"POSITION" : 31, "NORMAL" : 32, "TANGENT" : 33, "TEXCOORD_0" : 34}, "indices" : 30, "material" : 1, "mode" : 4}], "name" : "Scene"}, {"primitives" : [{"attributes" : {"POSITION" : 36, "NORMAL" : 37, "TANGENT" : 38, "TEXCOORD_0" : 39}, "indices" : 35, "material" : 0, "mode" : 4}], "name" : "Scene"}, {"primitives" : [{"attributes" : {"POSITION" : 41, "NORMAL" : 42, "TANGENT" : 43, "TEXCOORD_0" : 44}, "indices" : 40, "material" : 0, "mode" : 4}], "name" : "Scene"}], "nodes" : [{"matrix" : [0.6817693763653614, 0, 9.584440304177413, 0, 0, 1, 0, 0, -0.9974796133708069, 0, 0.07095365325073537, 0, -0.13176535721868277, 0.16300061251968145, 0.8634311147034168, 1], "mesh" : 0, "name" : "pCube1"}, {"matrix" : [-7.387531549950722, 6.955796002618602E-16, -6.144158447287367, 0, 1.2239093081061503E-16, 1, -3.3948874254941306E-17, 0, 0.6394398210000825, -1.0436292644354898E-16, -0.7688411509013956, 0, -1.015970204025507, 0.731025543063879, -1.152545865625143, 1], "mesh" : 1, "name" : "pCube2"}, {"matrix" : [3.8248365975243557, -0.015837173720864572, 4.6748398977158265, 0, -0.002229189792145119, 0.6286019156021376, 0.003953411206127924, 0, -0.4865213873253184, -0.004228725706756236, 0.3980452544622477, 0, 1.0702895931899548, 0.4847779870033264, 0.2581675536930561, 1], "mesh" : 2, "name" : "pCube5"}, {"matrix" : [1, 0, 0, 0, 0, 1, 0, 0, 0, 0, 1, 0, -0.22163009271025658, 0.8859447203576565, -0.34868912771344185, 1], "mesh" : 3, "name" : "pPipe2"}, {"matrix" : [1, 0, 0, 0, 0, 1, 0, 0, 0, 0, 1, 0, -0.2095928182825446, -0.03701007226482034, -0.3354157321155071, 1], "mesh" : 4, "name" : "pPipe3"}, {"matrix" : [1, 0, 0, 0, 0, 0.3830062747001648, 0, 0, 0, 0, 1, 0, -0.2951087895780802, 2.859235182404518, -0.3354157321155071, 1], "mesh" : 5, "name" : "pPipe4"}, {"matrix" : [-0.29475196941058635, -0.07354411721336601, 0.550339446521743, 0, 0.11802977506520344, 0.6005390259789302, 0.14346713045261042, 0, -0.5425414415255385, 0.17060219267511054, -0.2677772266788313, 0, 0.9047755971550941, 0.6119947880506516, -0.34868912771344185, 1], "mesh" : 6, "name" : "pPipe9"}, {"matrix" : [-0.27307128017405397, -0.02578169666091585, 0.5656220885956973, 0, 0.06425856712707963, 0.6224980372506714, 0.0593969461825043, 0, -0.5625512239261851, 0.08362095898946169, -0.2677771885781252, 0, 0.9479637257754803, -0.03701007226482034, -0.3354157321155071, 1], "mesh" : 7, "name" : "pPipe10"}, {"matrix" : [-0.29657005512317597, -0.07718968751334673, 0.5488614775986737, 0, 0.04593766083686329, 0.22934626655455692, 0.057076152240408184, 0, -0.5411299619237419, 0.17502765527400826, -0.26777724183295265, 0, 1.767093688249588, 2.0981227979063988, -0.3354157321155071, 1], "mesh" : 8, "name" : "pPipe11"}, {"children" : [0, 1, 2, 3, 4, 5, 6, 7, 8], "name" : "Modelo"}, {"children" : [9], "matrix" : [0.07000000029802322, 0, 0, 0, 0, 0.07000000029802322, 0, 0, 0, 0, 0.07000000029802322, 0, 0, 0, 0, 1], "name" : "Flor01"}], "scene" : 0, "scenes" : [{"nodes" : [10]}]}