{"accessors" : [{"bufferView" : 0, "byteOffset" : 0, "componentType" : 5123, "count" : 960, "type" : "SCALAR", "max" : [959], "min" : [0]}, {"bufferView" : 1, "byteOffset" : 0, "componentType" : 5126, "count" : 960, "type" : "VEC3", "max" : [1.8181761503219604, 1.0161687135696411, 1.8181774616241455], "min" : [-1.8181761503219604, -1.075805902481079, -1.8181781768798828], "name" : "POSITION"}, {"bufferView" : 1, "byteOffset" : 12, "componentType" : 5126, "count" : 960, "type" : "VEC3", "max" : [1.0000044107437134, 1.0000044107437134, 1.0000044107437134], "min" : [-1.0000044107437134, -1.0000044107437134, -1.0000044107437134], "name" : "NORMAL"}, {"bufferView" : 1, "byteOffset" : 24, "componentType" : 5126, "count" : 960, "type" : "VEC4", "max" : [1.0000044107437134, 1.0000044107437134, 1.0000044107437134, 1], "min" : [-1.0000044107437134, -0.11430612951517105, -1.0000044107437134, 1], "name" : "TANGENT"}, {"bufferView" : 1, "byteOffset" : 40, "componentType" : 5126, "count" : 960, "type" : "VEC2", "max" : [0.65625, 1.0000001192092896], "min" : [0.3437499701976776, 0], "name" : "TEXCOORD_0"}, {"bufferView" : 0, "byteOffset" : 1920, "componentType" : 5123, "count" : 240, "type" : "SCALAR", "max" : [239], "min" : [0]}, {"bufferView" : 2, "byteOffset" : 0, "componentType" : 5126, "count" : 240, "type" : "VEC3", "max" : [1.5214180946350098, 1.0758050680160522, 1.5214184522628784], "min" : [-1.521418571472168, -1.0758050680160522, -1.5214189291000366], "name" : "POSITION"}, {"bufferView" : 2, "byteOffset" : 12, "componentType" : 5126, "count" : 240, "type" : "VEC3", "max" : [1.0000044107437134, 1.0000044107437134, 1.0000044107437134], "min" : [-1.0000044107437134, -1.0000044107437134, -1.0000044107437134], "name" : "NORMAL"}, {"bufferView" : 2, "byteOffset" : 24, "componentType" : 5126, "count" : 240, "type" : "VEC4", "max" : [1.0000044107437134, 6.414706987811769E-09, 1.0000044107437134, 1], "min" : [-1.0000044107437134, -6.661117435413644E-09, -1.0000044107437134, 1], "name" : "TANGENT"}, {"bufferView" : 2, "byteOffset" : 40, "componentType" : 5126, "count" : 240, "type" : "VEC2", "max" : [0.65625, 1.0000001192092896], "min" : [0.3437499701976776, 0], "name" : "TEXCOORD_0"}, {"bufferView" : 0, "byteOffset" : 2400, "componentType" : 5123, "count" : 240, "type" : "SCALAR", "max" : [239], "min" : [0]}, {"bufferView" : 3, "byteOffset" : 0, "componentType" : 5126, "count" : 240, "type" : "VEC3", "max" : [1.2938755750656128, 0.5767546892166138, 1.2938756942749023], "min" : [-1.2938756942749023, -0.5767546892166138, -1.2938761711120605], "name" : "POSITION"}, {"bufferView" : 3, "byteOffset" : 12, "componentType" : 5126, "count" : 240, "type" : "VEC3", "max" : [0.6205933690071106, 1.0000044107437134, 0.620593249797821], "min" : [-0.6205933094024658, -1.0000044107437134, -0.620593249797821], "name" : "NORMAL"}, {"bufferView" : 3, "byteOffset" : 24, "componentType" : 5126, "count" : 240, "type" : "VEC4", "max" : [1.0000044107437134, 0.07651769369840622, 1.000003695487976, 1], "min" : [-1.0000044107437134, -0.07651937752962112, -1.000003695487976, 1], "name" : "TANGENT"}, {"bufferView" : 3, "byteOffset" : 40, "componentType" : 5126, "count" : 240, "type" : "VEC2", "max" : [0.65625, 1.0000001192092896], "min" : [0.3437499701976776, 0], "name" : "TEXCOORD_0"}, {"bufferView" : 0, "byteOffset" : 2880, "componentType" : 5123, "count" : 960, "type" : "SCALAR", "max" : [959], "min" : [0]}, {"bufferView" : 4, "byteOffset" : 0, "componentType" : 5126, "count" : 960, "type" : "VEC3", "max" : [1.8181761503219604, 1.0161687135696411, 1.8181774616241455], "min" : [-1.8181761503219604, -1.075805902481079, -1.8181781768798828], "name" : "POSITION"}, {"bufferView" : 4, "byteOffset" : 12, "componentType" : 5126, "count" : 960, "type" : "VEC3", "max" : [1.0000044107437134, 1.0000044107437134, 1.0000044107437134], "min" : [-1.0000044107437134, -1.0000044107437134, -1.0000044107437134], "name" : "NORMAL"}, {"bufferView" : 4, "byteOffset" : 24, "componentType" : 5126, "count" : 960, "type" : "VEC4", "max" : [1.0000044107437134, 1.0000044107437134, 1.0000044107437134, 1], "min" : [-1.0000044107437134, -0.11430612951517105, -1.0000044107437134, 1], "name" : "TANGENT"}, {"bufferView" : 4, "byteOffset" : 40, "componentType" : 5126, "count" : 960, "type" : "VEC2", "max" : [0.65625, 1.0000001192092896], "min" : [0.3437499701976776, 0], "name" : "TEXCOORD_0"}, {"bufferView" : 0, "byteOffset" : 4800, "componentType" : 5123, "count" : 240, "type" : "SCALAR", "max" : [239], "min" : [0]}, {"bufferView" : 5, "byteOffset" : 0, "componentType" : 5126, "count" : 240, "type" : "VEC3", "max" : [1.5214180946350098, 1.0758050680160522, 1.5214184522628784], "min" : [-1.521418571472168, -1.0758050680160522, -1.5214189291000366], "name" : "POSITION"}, {"bufferView" : 5, "byteOffset" : 12, "componentType" : 5126, "count" : 240, "type" : "VEC3", "max" : [1.0000044107437134, 1.0000044107437134, 1.0000044107437134], "min" : [-1.0000044107437134, -1.0000044107437134, -1.0000044107437134], "name" : "NORMAL"}, {"bufferView" : 5, "byteOffset" : 24, "componentType" : 5126, "count" : 240, "type" : "VEC4", "max" : [1.0000044107437134, 6.414706987811769E-09, 1.0000044107437134, 1], "min" : [-1.0000044107437134, -6.661117435413644E-09, -1.0000044107437134, 1], "name" : "TANGENT"}, {"bufferView" : 5, "byteOffset" : 40, "componentType" : 5126, "count" : 240, "type" : "VEC2", "max" : [0.65625, 1.0000001192092896], "min" : [0.3437499701976776, 0], "name" : "TEXCOORD_0"}, {"bufferView" : 0, "byteOffset" : 5280, "componentType" : 5123, "count" : 432, "type" : "SCALAR", "max" : [431], "min" : [0]}, {"bufferView" : 6, "byteOffset" : 0, "componentType" : 5126, "count" : 432, "type" : "VEC3", "max" : [2.4595775604248047, 1.1793475151062012, 2.4777164459228516], "min" : [-2.4205799102783203, -0.3793473243713379, -2.4777164459228516], "name" : "POSITION"}, {"bufferView" : 6, "byteOffset" : 12, "componentType" : 5126, "count" : 432, "type" : "VEC3", "max" : [0.9655642509460449, 0.8139681816101074, 0.9699334502220154], "min" : [-0.9452019929885864, -1.0000044107437134, -0.9699334502220154], "name" : "NORMAL"}, {"bufferView" : 6, "byteOffset" : 24, "componentType" : 5126, "count" : 432, "type" : "VEC4", "max" : [0.9850906729698181, 0.9727276563644409, 1.0000044107437134, 1], "min" : [-0.9980011582374573, -0.36271506547927856, -0.9396973848342896, 1], "name" : "TANGENT"}, {"bufferView" : 6, "byteOffset" : 40, "componentType" : 5126, "count" : 432, "type" : "VEC2", "max" : [1, 1], "min" : [0, 0], "name" : "TEXCOORD_0"}, {"bufferView" : 0, "byteOffset" : 6144, "componentType" : 5123, "count" : 3480, "type" : "SCALAR", "max" : [3479], "min" : [0]}, {"bufferView" : 7, "byteOffset" : 0, "componentType" : 5126, "count" : 3480, "type" : "VEC3", "max" : [2.5322611331939697, 2.3689494132995605, 2.4083235263824463], "min" : [-2.5322611331939697, -2.779873847961426, -2.4083240032196045], "name" : "POSITION"}, {"bufferView" : 7, "byteOffset" : 12, "componentType" : 5126, "count" : 3480, "type" : "VEC3", "max" : [0.9813258647918701, 0.9748502373695374, 0.9996482133865356], "min" : [-0.9813258647918701, -0.9748502373695374, -0.9996482133865356], "name" : "NORMAL"}, {"bufferView" : 7, "byteOffset" : 24, "componentType" : 5126, "count" : 3480, "type" : "VEC4", "max" : [1.0000044107437134, 0.949144721031189, 0.9998887181282043, 1], "min" : [-1.0000044107437134, -0.9753755331039429, -0.9998887181282043, 1], "name" : "TANGENT"}, {"bufferView" : 7, "byteOffset" : 40, "componentType" : 5126, "count" : 3480, "type" : "VEC2", "max" : [1.0000001192092896, 1], "min" : [0, 0], "name" : "TEXCOORD_0"}], "asset" : {"generator" : "Aspose.3D 25.3.0", "version" : "2.0"}, "buffers" : [{"uri" : "data:application/octet-stream;base64,", "byteLength" : 327632}], "bufferViews" : [{"buffer" : 0, "byteOffset" : 0, "byteLength" : 13104, "target" : 34963}, {"buffer" : 0, "byteOffset" : 13108, "byteLength" : 46080, "byteStride" : 48, "target" : 34962}, {"buffer" : 0, "byteOffset" : 59192, "byteLength" : 11520, "byteStride" : 48, "target" : 34962}, {"buffer" : 0, "byteOffset" : 70716, "byteLength" : 11520, "byteStride" : 48, "target" : 34962}, {"buffer" : 0, "byteOffset" : 82240, "byteLength" : 46080, "byteStride" : 48, "target" : 34962}, {"buffer" : 0, "byteOffset" : 128324, "byteLength" : 11520, "byteStride" : 48, "target" : 34962}, {"buffer" : 0, "byteOffset" : 139848, "byteLength" : 20736, "byteStride" : 48, "target" : 34962}, {"buffer" : 0, "byteOffset" : 160588, "byteLength" : 167040, "byteStride" : 48, "target" : 34962}], "materials" : [{"name" : "blinn19", "pbrMetallicRoughness" : {"baseColorFactor" : [0.4829999804496765, 0.45515960454940796, 0.41779497265815735, 1], "metallicFactor" : 1, "roughnessFactor" : 1}, "emissiveFactor" : [0, 0, 0], "alphaMode" : "OPAQUE", "doubleSided" : false}, {"name" : "blinn20", "pbrMetallicRoughness" : {"baseColorFactor" : [0.5220000147819519, 0.39012718200683594, 0.2552579939365387, 1], "metallicFactor" : 1, "roughnessFactor" : 1}, "emissiveFactor" : [0, 0, 0], "alphaMode" : "OPAQUE", "doubleSided" : false}, {"name" : "blinn12", "pbrMetallicRoughness" : {"baseColorFactor" : [0.953000009059906, 0.8486678600311279, 0.5822830200195312, 1], "metallicFactor" : 1, "roughnessFactor" : 1}, "emissiveFactor" : [0, 0, 0], "alphaMode" : "OPAQUE", "doubleSided" : false}, {"name" : "blinn22", "pbrMetallicRoughness" : {"baseColorFactor" : [0.9269999861717224, 0.3225959539413452, 0.34296438097953796, 1], "metallicFactor" : 1, "roughnessFactor" : 1}, "emissiveFactor" : [0, 0, 0], "alphaMode" : "OPAQUE", "doubleSided" : false}, {"name" : "blinn21", "pbrMetallicRoughness" : {"baseColorFactor" : [0.3818697929382324, 0.5, 0.2554999887943268, 1], "metallicFactor" : 1, "roughnessFactor" : 1}, "emissiveFactor" : [0, 0, 0], "alphaMode" : "OPAQUE", "doubleSided" : false}], "meshes" : [{"primitives" : [{"attributes" : {"POSITION" : 1, "NORMAL" : 2, "TANGENT" : 3, "TEXCOORD_0" : 4}, "indices" : 0, "material" : 0, "mode" : 4}], "name" : "Scene"}, {"primitives" : [{"attributes" : {"POSITION" : 6, "NORMAL" : 7, "TANGENT" : 8, "TEXCOORD_0" : 9}, "indices" : 5, "material" : 1, "mode" : 4}], "name" : "Scene"}, {"primitives" : [{"attributes" : {"POSITION" : 11, "NORMAL" : 12, "TANGENT" : 13, "TEXCOORD_0" : 14}, "indices" : 10, "material" : 2, "mode" : 4}], "name" : "Scene"}, {"primitives" : [{"attributes" : {"POSITION" : 16, "NORMAL" : 17, "TANGENT" : 18, "TEXCOORD_0" : 19}, "indices" : 15, "material" : 0, "mode" : 4}], "name" : "Scene"}, {"primitives" : [{"attributes" : {"POSITION" : 21, "NORMAL" : 22, "TANGENT" : 23, "TEXCOORD_0" : 24}, "indices" : 20, "material" : 1, "mode" : 4}], "name" : "Scene"}, {"primitives" : [{"attributes" : {"POSITION" : 26, "NORMAL" : 27, "TANGENT" : 28, "TEXCOORD_0" : 29}, "indices" : 25, "material" : 3, "mode" : 4}], "name" : "Scene"}, {"primitives" : [{"attributes" : {"POSITION" : 31, "NORMAL" : 32, "TANGENT" : 33, "TEXCOORD_0" : 34}, "indices" : 30, "material" : 4, "mode" : 4}], "name" : "Scene"}], "nodes" : [{"matrix" : [1.0284018516540527, 0, 0, 0, 0, 1.459891438484192, 0, 0, 0, 0, 1.0284018516540527, 0, -0.05357837653718889, -3.171567991375923, 0.037124406662769616, 1], "mesh" : 0, "name" : "pCylinder5"}, {"matrix" : [1.0284018516540527, 0, 0, 0, 0, 0.09113442152738571, 0, 0, 0, 0, 1.0284018516540527, 0, -0.05357837653718889, -2.064625546336174, 0.037124406662769616, 1], "mesh" : 1, "name" : "pCylinder7"}, {"matrix" : [0.2027370184659958, 0, 0, 0, 0, 0.27773815393447876, 0, 0, 0, 0, 0.2027370184659958, 0, -0.048519132542423904, 1.8994463607668877, -0.00746739751775749, 1], "mesh" : 2, "name" : "pCylinder9"}, {"matrix" : [1.0284018516540527, 0, 0, 0, 0, 1.459891438484192, 0, 0, 0, 0, 1.0284018516540527, 0, -0.05357837653718889, -3.171567991375923, 0.037124406662769616, 1], "mesh" : 3, "name" : "pCylinder10"}, {"matrix" : [1.0284018516540527, 0, 0, 0, 0, 0.09113442152738571, 0, 0, 0, 0, 1.0284018516540527, 0, -0.05357837653718889, -2.064625546336174, 0.037124406662769616, 1], "mesh" : 4, "name" : "pCylinder11"}, {"matrix" : [0.19274461269378662, 0, 0, 0, 0, 0.26404911279678345, 0, 0, 0, 0, 0.19274461269378662, 0, -0.043350219493731856, 1.9764456897974014, -0.008361905929632485, 1], "mesh" : 5, "name" : "pPipe28"}, {"matrix" : [1, 0, 0, 0, 0, 1, 0, 0, 0, 0, 1, 0, -0.04984092665836215, 1.1965481889212315E-15, 0.0075120580731891096, 1], "mesh" : 6, "name" : "pSphere6"}, {"children" : [0, 1, 2, 3, 4, 5, 6], "name" : "Modelo"}, {"children" : [7], "matrix" : [0.07000000029802322, 0, 0, 0, 0, 0.07000000029802322, 0, 0, 0, 0, 0.07000000029802322, 0, 0, 0, 0, 1], "name" : "Flor07"}], "scene" : 0, "scenes" : [{"nodes" : [8]}]}